<svg xmlns="http://www.w3.org/2000/svg" width="980" height="610" viewBox="0 0 980 610">
  <g fill="#F9F9F9" transform="matrix(1 0 0 -1 0 609.7)">
    <path d="M591.59,606.77 C528.33,599.1 457.21,575.71 398.55,543.51 C374.78,530.47 331.45,501.14 308.45,482.55 C237.13,425.04 165.63,338.2 107.54,238.9 C70.16,175.06 30.86,89.95 7.47,21.9 L0,0.04 L417.33,0.23 C786.16,0.42 832.36,0.81 814.73,3.11 C689.93,19.98 605.2,89.95 578.55,197.49 C572.22,223.37 572.03,270.91 578.36,295.83 C595.61,365.03 642.01,411.81 710.63,428.87 C729.04,433.47 774.47,433.47 791.53,428.68 C830.44,417.94 864.57,392.64 891.79,354.3 C910.39,328.23 928.98,285.1 938.18,247.33 L941.82,232.95 L950.83,251.93 C961.76,274.55 970.38,300.05 975.94,325.54 C979.2,340.49 980.16,350.46 979.97,375.77 C979.97,403.76 979.4,409.51 974.99,426.19 C954.86,501.34 894.67,554.63 791.53,588.18 C757.22,599.49 739.58,603.52 711.59,606.78 C681.88,610.22 620.73,610.22 591.59,606.77 Z"/>
    <path d="M734.98,403.38 C731.91,402.81 722.9,401.08 715.04,399.55 L700.85,396.48 L716.19,389.2 C733.63,380.96 745.9,370.99 751.85,359.68 C755.68,352.39 756.07,349.14 756.07,318.27 C756.07,279.16 758.18,270.34 771.02,255.78 C787.51,237.18 806.87,234.69 828.53,248.88 C832.36,251.56 838.12,257.12 841.19,261.15 L846.75,268.63 L848.09,258.47 C851.35,234.89 861.89,218.21 878.76,209.78 C887.77,205.56 891.22,204.79 901.76,205.56 C908.47,205.94 914.41,206.71 914.99,207.28 C916.71,208.81 907.13,250.22 900.23,270.73 C877.03,339.93 835.63,386.9 786.36,399.55 C774.28,402.8 745.14,404.91 734.98,403.38 Z"/>
  </g>
</svg>
