<svg xmlns="http://www.w3.org/2000/svg" width="22" height="22" viewBox="0 0 22 22">
  <g fill="#999" fill-rule="evenodd">
    <path d="M19.25,0 L16.5,0 L16.5,1.375 L5.5,1.375 L5.5,0 L2.75,0 L2.75,1.375 L0,1.375 L0,5.5 L0,6.875 L0,20.625 L0,22 L1.375,22 L22,22 L22,20.625 L22,6.875 L22,5.5 L22,1.375 L19.25,1.375 L19.25,0 Z M20.625,6.875 L20.625,20.625 L1.375,20.625 L1.375,6.875 L20.625,6.875 Z"/>
    <rect width="4.125" height="4.125" x="15.125" y="8.25"/>
    <rect width="4.125" height="4.125" x="15.125" y="13.75"/>
    <rect width="4.125" height="4.125" x="9.625" y="13.75"/>
    <rect width="4.125" height="4.125" x="4.125" y="13.75"/>
    <rect width="4.125" height="4.125" x="9.625" y="8.25"/>
    <rect width="4.125" height="4.125" x="4.125" y="8.25"/>
  </g>
</svg>
