<svg xmlns="http://www.w3.org/2000/svg" width="26" height="23" viewBox="0 0 26 23">
  <path fill="#999" fill-rule="evenodd" d="M20.593181,19.0863628 L20.4927264,18.9859083 L21.7986354,17.6799993 L20.3922719,16.2736357 L19.0863628,17.5795447 L18.0818174,16.5749993 C18.0818174,16.3740902 18.0818174,16.0727266 18.0818174,15.8718175 L14.5659085,2.31045445 C14.3649994,1.30590904 13.4609085,0.703181789 12.4563631,0.80363633 L2.9131817,1.30590904 C1.90863628,1.40636358 1.10499995,2.20999991 1.00454541,3.21454532 L0.401818165,12.8581813 C0.301363624,13.8627267 1.00454541,14.7668176 1.90863628,14.9677266 L15.5704539,18.383181 C15.6709084,18.383181 15.771363,18.383181 15.9722721,18.383181 C16.1731811,18.383181 16.4745448,18.2827265 16.6754538,18.2827265 L17.4790902,19.0863628 L16.1731811,20.3922719 L17.5795447,21.7986354 L18.8854538,20.4927264 L18.9859083,20.593181 C19.8899992,21.4972718 19.8899992,22.8031809 18.9859083,23.7072717 C18.0818174,24.6113626 16.7759084,24.6113626 15.8718175,23.7072717 C13.6618176,21.4972718 13.0590904,23.7072717 14.4654539,25.1136353 C16.0727266,26.720908 18.7849992,26.720908 20.3922719,25.1136353 C21.9995445,23.5063626 22.2004536,20.79409 20.593181,19.0863628 Z M16.0727266,16.3740902 L16.0727266,16.3740902 L7.43363605,7.73499967 L2.51136353,12.6572722 L3.01363624,3.31499986 L7.33318151,7.63454513 L12.5568177,2.41090899 L16.0727266,16.3740902 Z" transform="rotate(87 13.225 13.515)"/>
</svg>
