<svg xmlns="http://www.w3.org/2000/svg" width="25" height="23" viewBox="0 0 25 23">
  <path fill="#999" fill-rule="evenodd" d="M24.7595823,3.08506499 L18.5095826,0.040879068 C18.5054159,0.0387046495 18.5008326,0.0395744169 18.4970826,0.0378348821 C18.4479159,0.0156558133 18.3962492,0.00391395332 18.3437492,0.00260930222 C18.3399992,0.00260930222 18.3366659,0 18.3329159,0 C18.3245826,0 18.3166659,0.00304418592 18.3083326,0.00391395332 C18.2854159,0.00521860443 18.2629159,0.00826279035 18.2404159,0.0139162785 C18.2254159,0.0173953481 18.2108326,0.0217441851 18.1962492,0.0269627896 C18.1874992,0.0304418592 18.1779159,0.0313116266 18.1691659,0.0352255799 L12.4999995,2.57103245 L6.83083305,0.0352255799 C6.82833305,0.0343558125 6.82541638,0.0347906962 6.82249971,0.0334860451 C6.77708305,0.0143511622 6.72958305,0.00478372073 6.68083305,0.00304418592 C6.67624972,0.00260930222 6.67166639,0 6.66708305,0 C6.65916639,0 6.65208305,0.00304418592 6.64416639,0.00347906962 C6.61999972,0.00478372073 6.59666639,0.00869767405 6.57249972,0.0143511622 C6.55958306,0.0173953481 6.54666639,0.020439534 6.53374973,0.0252232548 C6.52666639,0.0273976733 6.51916639,0.0282674407 6.51166639,0.0308767429 L0.261666656,2.64017896 C0.103749996,2.70671617 0,2.86631848 0,3.04418592 L0,21.7441851 C0,21.8885665 0.0687499971,22.0233805 0.183333326,22.1042688 C0.252916656,22.1534107 0.334583319,22.1790688 0.416666649,22.1790688 C0.46874998,22.1790688 0.521249978,22.1690665 0.571666643,22.1481921 L6.66124972,19.605862 L12.3358328,22.1438433 C12.3416661,22.1464526 12.3479161,22.1451479 12.3537495,22.1477572 C12.4008328,22.1664572 12.4499995,22.1790688 12.4999995,22.1790688 C12.5504161,22.1790688 12.5991661,22.1664572 12.6462495,22.1477572 C12.6520828,22.1451479 12.6583328,22.1464526 12.6641661,22.1438433 L18.3387492,19.605862 L24.4283323,22.1481921 C24.478749,22.1690665 24.531249,22.1790688 24.5833323,22.1790688 C24.6654156,22.1790688 24.7470823,22.1534107 24.8166656,22.1042688 C24.931249,22.0233805 24.9999989,21.8885665 24.9999989,21.7441851 L24.9999989,3.47906962 C24.9999989,3.30989986 24.906249,3.15638591 24.7595823,3.08506499 L24.7595823,3.08506499 Z M7.08333304,1.09460228 L12.0833328,3.33077428 L12.0833328,21.0849014 L7.08333304,18.8478597 L7.08333304,1.09460228 L7.08333304,1.09460228 Z M24.1666656,21.1018619 L18.7499992,18.8404666 L18.7499992,1.11765112 L24.1666656,3.75609054 L24.1666656,21.1018619 L24.1666656,21.1018619 Z"/>
</svg>
