<svg xmlns="http://www.w3.org/2000/svg" width="38" height="21" viewBox="0 0 38 21">
  <path fill="#F9F9F9" fill-rule="evenodd" d="M.818960109 3.11219583C.917288743 3.10838017 1.01836978 3.10838017 1.12220321 3.11219583 1.61267041 3.13021943 2.38438985 2.89214267 3.21105416 2.12656835 5.09771195.379333397 4.40158298.00108471531 5.25816913.00108471531 5.89461853.00108471531 6.293559 1.06504107 6.97280831 1.78585406 7.73389953 2.59351692 8.77957629 3.06996466 9.56958477 3.11219583 10.4058707 3.15690083 11.3057758 2.84680232 11.994276 2.30797265 13.0339052 1.49434461 13.6993184.306157094 13.7919635.197633965 13.9597556.00108471531 14.0965851.00108471531 14.2565653.00108471531 14.9629605.00108471531 15.1164659.974576055 15.912064 1.7200495 17.2414048 2.96563849 17.919657 3.13085323 18.6907704 3.11219583 21.2670842 3.04986087 22.447481.411671188 22.6571665.255771973 22.821946.133259913 22.9960347.00108471531 23.164052.00108471531 23.8816846.00108471531 24.2086476 1.2551844 25.0403748 1.94173444 26.4583407 3.11219583 26.9448974 3.07748718 27.6662891 3.11219583 29.8715023 3.21829624 31.3642805.480500368 31.5437723.255771973 31.7500153-.00244967246 32.1749362.00108471531 32.2239902.00108471531 32.3094302.00108471531 32.4264641-.031145956 32.6635542.255771973 32.9674471.623532195 33.4733944 1.40789755 34.4141826 2.30797265 35.2667193 3.12361532 36.2743989 3.11219583 36.4446096 3.11219583 36.6613069 3.11219583 36.8236576 3.15888846 36.9316616 3.25227373 37.1758526 3.41099909 37.3165243 3.56741574 37.3536766 3.72152369 37.3908289 3.87563164 37.3908289 4.01945384 37.3536766 4.1529903 37.3305038 4.32483966 37.2342825 4.47910942 37.0650128 4.61579957 36.9533629 4.70596004 36.558941 4.74845075 36.4038377 4.74307294 35.549011 4.71343402 34.927288 4.51701476 34.5688402 4.29919188 32.8733711 3.26888296 32.8733711 2.97829351 32.3851904 2.55136873 32.250783 2.43382649 32.250783 2.23241671 32.0989743 2.38854589 30.2412011 4.29919188 28.9938227 4.77621869 27.6662891 4.74307294 24.6495547 4.66775138 23.3020925 2.22841894 23.164052 2.38675003 21.4966944 4.29919188 19.8022555 4.72418189 18.6768383 4.74307294 15.4955998 4.79647264 14.3910246 2.137367 14.2565653 2.30797265 12.3967552 4.66775138 10.337782 4.87130489 9.56958477 4.74307294 6.03458559 4.1529903 6.26035887 2.8809693 5.31968206 2.30797265 5.27452616 2.28046674 5.11049531 2.59118847 4.21606582 3.34623489 4.12766924 3.42085622 3.80199706 3.74544575 3.21105416 4.1529903 3.05343485 4.26169267 2.06354784 4.62011685 1.76172177 4.66775138 1.12220321 4.76868093.855364238 4.8021463.631021393 4.74307294.406678548 4.68399959.353079509 4.66775138.0844458344 4.29919188.050484082 4.2525971.0488739712 4.18111582.03948186 4.1529903-.00356957717 4.02406893-.00517578291 3.95726669.00556611117 3.90238748.0306928114 3.77401778.015962985 3.78901446.03948186 3.74544575.0477085087 3.73020588.0652679574 3.71418183.0844458344 3.67356689.171457819 3.48929276.41629591 3.30216907.818960109 3.11219583zM.818960109 10.8899736C.917288743 10.886158 1.01836978 10.886158 1.12220321 10.8899736 1.61267041 10.9079972 2.38438985 10.6699204 3.21105416 9.90434612 5.09771195 8.15711117 4.40158298 7.77886249 5.25816913 7.77886249 5.89461853 7.77886249 6.293559 8.84281885 6.97280831 9.56363184 7.73389953 10.3712947 8.77957629 10.8477424 9.56958477 10.8899736 10.4058707 10.9346786 11.3057758 10.6245801 11.994276 10.0857504 13.0339052 9.27212239 13.6993184 8.08393487 13.7919635 7.97541174 13.9597556 7.77886249 14.0965851 7.77886249 14.2565653 7.77886249 14.9629605 7.77886249 15.1164659 8.75235383 15.912064 9.49782728 17.2414048 10.7434163 17.919657 10.908631 18.6907704 10.8899736 21.2670842 10.8276387 22.447481 8.18944897 22.6571665 8.03354975 22.821946 7.91103769 22.9960347 7.77886249 23.164052 7.77886249 23.8816846 7.77886249 24.2086476 9.03296217 25.0403748 9.71951222 26.4583407 10.8899736 26.9448974 10.855265 27.6662891 10.8899736 29.8715023 10.996074 31.3642805 8.25827815 31.5437723 8.03354975 31.7500153 7.77532811 32.1749362 7.77886249 32.2239902 7.77886249 32.3094302 7.77886249 32.4264641 7.74663182 32.6635542 8.03354975 32.9674471 8.40130997 33.4733944 9.18567533 34.4141826 10.0857504 35.2667193 10.9013931 36.2743989 10.8899736 36.4446096 10.8899736 36.6613069 10.8899736 36.8236576 10.9366662 36.9316616 11.0300515 37.1758526 11.1887769 37.3165243 11.3451935 37.3536766 11.4993015 37.3908289 11.6534094 37.3908289 11.7972316 37.3536766 11.9307681 37.3305038 12.1026174 37.2342825 12.2568872 37.0650128 12.3935774 36.9533629 12.4837378 36.558941 12.5262285 36.4038377 12.5208507 35.549011 12.4912118 34.927288 12.2947925 34.5688402 12.0769697 32.8733711 11.0466607 32.8733711 10.7560713 32.3851904 10.3291465 32.250783 10.2116043 32.250783 10.0101945 32.0989743 10.1663237 30.2412011 12.0769697 28.9938227 12.5539965 27.6662891 12.5208507 24.6495547 12.4455292 23.3020925 10.0061967 23.164052 10.1645278 21.4966944 12.0769697 19.8022555 12.5019597 18.6768383 12.5208507 15.4955998 12.5742504 14.3910246 9.91514478 14.2565653 10.0857504 12.3967552 12.4455292 10.337782 12.6490827 9.56958477 12.5208507 6.03458559 11.9307681 6.26035887 10.6587471 5.31968206 10.0857504 5.27452616 10.0582445 5.11049531 10.3689663 4.21606582 11.1240127 4.12766924 11.198634 3.80199706 11.5232235 3.21105416 11.9307681 3.05343485 12.0394704 2.06354784 12.3978946 1.76172177 12.4455292 1.12220321 12.5464587.855364238 12.5799241.631021393 12.5208507.406678548 12.4617774.353079509 12.4455292.0844458344 12.0769697.050484082 12.0303749.0488739712 11.9588936.03948186 11.9307681-.00356957717 11.8018467-.00517578291 11.7350445.00556611117 11.6801653.0306928114 11.5517956.015962985 11.5667922.03948186 11.5232235.0477085087 11.5079837.0652679574 11.4919596.0844458344 11.4513447.171457819 11.2670705.41629591 11.0799469.818960109 10.8899736zM.818960109 18.6677514C.917288743 18.6639357 1.01836978 18.6639357 1.12220321 18.6677514 1.61267041 18.685775 2.38438985 18.4476982 3.21105416 17.6821239 5.09771195 15.934889 4.40158298 15.5566403 5.25816913 15.5566403 5.89461853 15.5566403 6.293559 16.6205966 6.97280831 17.3414096 7.73389953 18.1490725 8.77957629 18.6255202 9.56958477 18.6677514 10.4058707 18.7124564 11.3057758 18.4023579 11.994276 17.8635282 13.0339052 17.0499002 13.6993184 15.8617126 13.7919635 15.7531895 13.9597556 15.5566403 14.0965851 15.5566403 14.2565653 15.5566403 14.9629605 15.5566403 15.1164659 16.5301316 15.912064 17.2756051 17.2414048 18.521194 17.919657 18.6864088 18.6907704 18.6677514 21.2670842 18.6054164 22.447481 15.9672267 22.6571665 15.8113275 22.821946 15.6888155 22.9960347 15.5566403 23.164052 15.5566403 23.8816846 15.5566403 24.2086476 16.81074 25.0403748 17.49729 26.4583407 18.6677514 26.9448974 18.6330427 27.6662891 18.6677514 29.8715023 18.7738518 31.3642805 16.0360559 31.5437723 15.8113275 31.7500153 15.5531059 32.1749362 15.5566403 32.2239902 15.5566403 32.3094302 15.5566403 32.4264641 15.5244096 32.6635542 15.8113275 32.9674471 16.1790878 33.4733944 16.9634531 34.4141826 17.8635282 35.2667193 18.6791709 36.2743989 18.6677514 36.4446096 18.6677514 36.6613069 18.6677514 36.8236576 18.714444 36.9316616 18.8078293 37.1758526 18.9665546 37.3165243 19.1229713 37.3536766 19.2770792 37.3908289 19.4311872 37.3908289 19.5750094 37.3536766 19.7085459 37.3305038 19.8803952 37.2342825 20.034665 37.0650128 20.1713551 36.9533629 20.2615156 36.558941 20.3040063 36.4038377 20.2986285 35.549011 20.2689896 34.927288 20.0725703 34.5688402 19.8547474 32.8733711 18.8244385 32.8733711 18.5338491 32.3851904 18.1069243 32.250783 17.989382 32.250783 17.7879723 32.0989743 17.9441014 30.2412011 19.8547474 28.9938227 20.3317742 27.6662891 20.2986285 24.6495547 20.2233069 23.3020925 17.7839745 23.164052 17.9423056 21.4966944 19.8547474 19.8022555 20.2797374 18.6768383 20.2986285 15.4955998 20.3520282 14.3910246 17.6929226 14.2565653 17.8635282 12.3967552 20.2233069 10.337782 20.4268604 9.56958477 20.2986285 6.03458559 19.7085459 6.26035887 18.4365249 5.31968206 17.8635282 5.27452616 17.8360223 5.11049531 18.146744 4.21606582 18.9017905 4.12766924 18.9764118 3.80199706 19.3010013 3.21105416 19.7085459 3.05343485 19.8172482 2.06354784 20.1756724 1.76172177 20.2233069 1.12220321 20.3242365.855364238 20.3577019.631021393 20.2986285.406678548 20.2395551.353079509 20.2233069.0844458344 19.8547474.050484082 19.8081527.0488739712 19.7366714.03948186 19.7085459-.00356957717 19.5796245-.00517578291 19.5128222.00556611117 19.457943.0306928114 19.3295733.015962985 19.34457.03948186 19.3010013.0477085087 19.2857614.0652679574 19.2697374.0844458344 19.2291224.171457819 19.0448483.41629591 18.8577246.818960109 18.6677514z"/>
</svg>
