<svg xmlns="http://www.w3.org/2000/svg" width="37" height="25" viewBox="0 0 37 25">
  <g fill="#F9F9F9" fill-rule="evenodd">
    <path d="M25.3921569,4.64586739 C25.3921569,2.08912207 22.863986,0 19.7695895,0 C16.6754135,0 14.1470956,2.08912207 14.1470956,4.64586739 L16.9547044,4.64586739 C16.9547044,3.37053124 18.2188633,2.32597021 19.7623132,2.32597021 C21.3057631,2.32597021 22.5699955,3.37053124 22.5699955,4.64586739 C22.5699955,5.92120353 21.3057631,6.96576456 19.7623132,6.96576456 L2.90196078,6.96576456 L2.90196078,9.28571429 L19.7695895,9.28566174 C22.863986,9.2978078 25.3921569,7.2026127 25.3921569,4.64586739 Z"/>
    <path d="M31.5116905 5.71428571C28.4950871 5.71428571 26.0304744 7.80205415 26.0304744 10.3571429L28.7745933 10.3571429C28.7745933 9.08263305 30.007043 8.03874883 31.5116905 8.03874883 33.0163381 8.03874883 34.2486445 9.08263305 34.2486445 10.3571429 34.2486445 11.6316527 33.0234314 12.681606 31.5116905 12.681606L0 12.681606 0 15 31.5187839 15C34.535244 15 37 12.9122316 37 10.3571429 37 7.80205415 34.528079 5.71428571 31.5116905 5.71428571zM27.0925345 18.5714286L7.98039216 18.5714286 7.98039216 20.7124175 27.0925345 20.7124175C27.9132575 20.7124175 28.4556484 21.1383734 28.4556484 21.7829119 28.4556484 22.4274505 27.9132575 22.8534624 27.0925345 22.8534624 26.2718114 22.8534624 25.7294205 22.4274505 25.7294205 21.7829119L23.0031212 21.7829119C23.0031212 23.498001 24.7801651 25 27.0995998 25 29.4190346 25 31.1960784 23.6044339 31.1960784 21.7829119 31.1960784 19.96139 29.4119692 18.5714286 27.0925345 18.5714286z"/>
  </g>
</svg>
